# Blender v2.82 (sub 7) OBJ File: 'box.blend'
# www.blender.org
mtllib default.mtl
o 柱体
v 0.000000 -0.018020 -1.000000
v -0.000000 0.251205 -0.442500
v 0.195090 -0.018020 -0.980785
v 0.086327 0.251205 -0.433998
v 0.382683 -0.018020 -0.923880
v 0.169337 0.251205 -0.408817
v 0.555570 -0.018020 -0.831470
v 0.245840 0.251205 -0.367925
v 0.707107 -0.018020 -0.707107
v 0.312895 0.251205 -0.312895
v 0.831470 -0.018020 -0.555570
v 0.367925 0.251205 -0.245840
v 0.923880 -0.018020 -0.382683
v 0.408817 0.251205 -0.169338
v 0.980785 -0.018020 -0.195090
v 0.433998 0.251205 -0.086327
v 1.000000 -0.018020 -0.000000
v 0.442500 0.251205 0.000000
v 0.980785 -0.018020 0.195090
v 0.433998 0.251205 0.086327
v 0.923880 -0.018020 0.382683
v 0.408817 0.251205 0.169337
v 0.831470 -0.018020 0.555570
v 0.367925 0.251205 0.245840
v 0.707107 -0.018020 0.707107
v 0.312895 0.251205 0.312895
v 0.555570 -0.018020 0.831470
v 0.245840 0.251205 0.367925
v 0.382683 -0.018020 0.923880
v 0.169337 0.251205 0.408817
v 0.195090 -0.018020 0.980785
v 0.086327 0.251205 0.433998
v -0.000000 -0.018020 1.000000
v -0.000000 0.251205 0.442500
v -0.195091 -0.018020 0.980785
v -0.086328 0.251205 0.433998
v -0.382684 -0.018020 0.923879
v -0.169338 0.251205 0.408817
v -0.555571 -0.018020 0.831469
v -0.245840 0.251205 0.367925
v -0.707107 -0.018020 0.707106
v -0.312895 0.251205 0.312895
v -0.831470 -0.018020 0.555570
v -0.367926 0.251205 0.245840
v -0.923880 -0.018020 0.382683
v -0.408817 0.251205 0.169337
v -0.980785 -0.018020 0.195089
v -0.433998 0.251205 0.086327
v -1.000000 -0.018020 -0.000001
v -0.442500 0.251205 -0.000000
v -0.980785 -0.018020 -0.195091
v -0.433997 0.251205 -0.086328
v -0.923879 -0.018020 -0.382684
v -0.408817 0.251205 -0.169338
v -0.831469 -0.018020 -0.555571
v -0.367925 0.251205 -0.245840
v -0.707106 -0.018020 -0.707108
v -0.312894 0.251205 -0.312895
v -0.555569 -0.018020 -0.831470
v -0.245839 0.251205 -0.367926
v -0.382682 -0.018020 -0.923880
v -0.169337 0.251205 -0.408817
v -0.195089 -0.018020 -0.980786
v -0.086327 0.251205 -0.433998
v 0.195090 0.257185 -0.980785
v 0.000000 0.257185 -1.000000
v 0.382683 0.257185 -0.923880
v 0.555570 0.257185 -0.831470
v 0.707107 0.257185 -0.707107
v 0.831470 0.257185 -0.555570
v 0.923880 0.257185 -0.382683
v 0.980785 0.257185 -0.195090
v 1.000000 0.257185 -0.000000
v 0.980785 0.257185 0.195090
v 0.923880 0.257185 0.382683
v 0.831470 0.257185 0.555570
v 0.707107 0.257185 0.707107
v 0.555570 0.257185 0.831470
v 0.382683 0.257185 0.923880
v 0.195090 0.257185 0.980785
v -0.000000 0.257185 1.000000
v -0.195091 0.257185 0.980785
v -0.382684 0.257185 0.923879
v -0.555571 0.257185 0.831469
v -0.707107 0.257185 0.707106
v -0.831470 0.257185 0.555570
v -0.923880 0.257185 0.382683
v -0.980785 0.257185 0.195089
v -1.000000 0.257185 -0.000001
v -0.980785 0.257185 -0.195091
v -0.923879 0.257185 -0.382684
v -0.831469 0.257185 -0.555571
v -0.707106 0.257185 -0.707108
v -0.555569 0.257185 -0.831470
v -0.382682 0.257185 -0.923880
v -0.195089 0.257185 -0.980786
v 0.161165 0.346316 -0.810233
v -0.000000 0.346316 -0.826106
v 0.316137 0.346316 -0.763223
v 0.458960 0.346316 -0.686882
v 0.584145 0.346316 -0.584145
v 0.686882 0.346316 -0.458960
v 0.763223 0.346316 -0.316137
v 0.810233 0.346316 -0.161165
v 0.826106 0.346316 -0.000000
v 0.810233 0.346316 0.161165
v 0.763223 0.346316 0.316137
v 0.686882 0.346316 0.458960
v 0.584145 0.346316 0.584145
v 0.458960 0.346316 0.686882
v 0.316137 0.346316 0.763223
v 0.161165 0.346316 0.810233
v -0.000000 0.346316 0.826106
v -0.161166 0.346316 0.810233
v -0.316138 0.346316 0.763222
v -0.458960 0.346316 0.686882
v -0.584146 0.346316 0.584145
v -0.686883 0.346316 0.458960
v -0.763223 0.346316 0.316137
v -0.810233 0.346316 0.161165
v -0.826106 0.346316 -0.000001
v -0.810233 0.346316 -0.161166
v -0.763222 0.346316 -0.316138
v -0.686882 0.346316 -0.458961
v -0.584145 0.346316 -0.584146
v -0.458959 0.346316 -0.686883
v -0.316136 0.346316 -0.763223
v -0.161164 0.346316 -0.810233
vt 0.423731 0.000000
vt 0.423731 0.366452
vt 0.387050 0.368046
vt 0.387050 0.001594
vt 0.352497 0.371174
vt 0.352497 0.004721
vt 0.321400 0.375713
vt 0.321400 0.009261
vt 0.294954 0.381492
vt 0.294954 0.015039
vt 0.268508 0.375714
vt 0.268508 0.009261
vt 0.237411 0.371174
vt 0.237411 0.004721
vt 0.202858 0.368047
vt 0.202858 0.001594
vt 0.166177 0.366452
vt 0.166177 0.000000
vt 0.128777 0.366452
vt 0.128777 0.000000
vt 0.092096 0.368047
vt 0.092096 0.001594
vt 0.057543 0.371174
vt 0.057543 0.004721
vt 0.026446 0.375714
vt 0.026446 0.009261
vt 0.000000 0.381492
vt 0.000000 0.015039
vt 0.589908 0.490739
vt 0.589908 0.124286
vt 0.621005 0.128826
vt 0.621005 0.495279
vt 0.655558 0.131953
vt 0.655558 0.498406
vt 0.692239 0.133548
vt 0.692239 0.500000
vt 0.729639 0.133548
vt 0.729639 0.500000
vt 0.766320 0.131953
vt 0.766320 0.498406
vt 0.800873 0.128826
vt 0.800873 0.495279
vt 0.831970 0.124286
vt 0.831970 0.490739
vt 0.831970 0.509261
vt 0.831970 0.875714
vt 0.800873 0.871174
vt 0.800873 0.504721
vt 0.766320 0.868047
vt 0.766320 0.501594
vt 0.729639 0.866452
vt 0.729639 0.500000
vt 0.692239 0.866452
vt 0.692239 0.500000
vt 0.655558 0.868047
vt 0.655558 0.501594
vt 0.621005 0.871174
vt 0.621005 0.504721
vt 0.589908 0.875714
vt 0.589908 0.509261
vt 0.589908 0.015039
vt 0.589908 0.381492
vt 0.563462 0.375713
vt 0.563462 0.009261
vt 0.532365 0.371174
vt 0.532365 0.004721
vt 0.497812 0.368046
vt 0.497812 0.001594
vt 0.841532 0.558998
vt 0.835199 0.543938
vt 0.831970 0.527951
vt 0.831970 0.511651
vt 0.835199 0.495664
vt 0.841532 0.480605
vt 0.850727 0.467052
vt 0.862429 0.455526
vt 0.876189 0.446470
vt 0.891479 0.440232
vt 0.907710 0.437052
vt 0.924260 0.437052
vt 0.940491 0.440232
vt 0.955781 0.446470
vt 0.969541 0.455526
vt 0.981244 0.467052
vt 0.990438 0.480605
vt 0.996771 0.495664
vt 1.000000 0.511651
vt 1.000000 0.527951
vt 0.996771 0.543938
vt 0.990438 0.558998
vt 0.981244 0.572551
vt 0.969541 0.584077
vt 0.955781 0.593132
vt 0.940491 0.599370
vt 0.924260 0.602550
vt 0.907710 0.602550
vt 0.891479 0.599370
vt 0.876189 0.593132
vt 0.862429 0.584077
vt 0.850727 0.572551
vt 0.461131 0.366452
vt 0.461131 0.000000
vt 0.000000 0.710195
vt 0.000000 0.673358
vt 0.007296 0.637230
vt 0.021609 0.603197
vt 0.042387 0.572569
vt 0.068833 0.546522
vt 0.099930 0.526057
vt 0.134483 0.511960
vt 0.171164 0.504773
vt 0.208564 0.504773
vt 0.245245 0.511960
vt 0.279798 0.526057
vt 0.310895 0.546522
vt 0.337341 0.572569
vt 0.358119 0.603197
vt 0.372431 0.637230
vt 0.379728 0.673358
vt 0.379728 0.710195
vt 0.372431 0.746323
vt 0.358119 0.780356
vt 0.337341 0.810984
vt 0.310895 0.837031
vt 0.279798 0.857497
vt 0.245245 0.871593
vt 0.208564 0.878780
vt 0.171164 0.878780
vt 0.134483 0.871593
vt 0.099929 0.857497
vt 0.068833 0.837031
vt 0.042387 0.810984
vt 0.021609 0.780356
vt 0.007296 0.746323
vt 0.426983 0.492349
vt 0.396680 0.493666
vt 0.368136 0.496249
vt 0.342446 0.500000
vt 0.320599 0.504773
vt 0.269309 0.504773
vt 0.247462 0.500000
vt 0.221772 0.496250
vt 0.193228 0.493666
vt 0.162925 0.492349
vt 0.132029 0.492349
vt 0.101726 0.493666
vt 0.073182 0.496249
vt 0.047492 0.500000
vt 0.025645 0.504773
vt 0.610954 0.000000
vt 0.636644 0.003750
vt 0.665188 0.006334
vt 0.695491 0.007651
vt 0.726387 0.007651
vt 0.756690 0.006334
vt 0.785234 0.003750
vt 0.810924 0.000000
vt 0.810924 1.000000
vt 0.785234 0.996250
vt 0.756690 0.993666
vt 0.726387 0.992349
vt 0.695491 0.992349
vt 0.665188 0.993666
vt 0.636644 0.996250
vt 0.610954 1.000000
vt 0.564263 0.504773
vt 0.542415 0.500000
vt 0.516726 0.496249
vt 0.488182 0.493666
vt 0.457879 0.492349
vt 0.976833 0.108976
vt 0.977195 0.125273
vt 0.832645 0.135450
vt 0.831970 0.105027
vt 0.978266 0.141240
vt 0.834644 0.165261
vt 0.980004 0.156266
vt 0.837890 0.193312
vt 0.982344 0.169772
vt 0.842258 0.218526
vt 0.530101 0.772054
vt 0.527762 0.785560
vt 0.385647 0.748514
vt 0.390015 0.723300
vt 0.526023 0.800586
vt 0.382402 0.776565
vt 0.524952 0.816553
vt 0.380403 0.806376
vt 0.524591 0.832849
vt 0.379728 0.836799
vt 0.524952 0.848848
vt 0.380403 0.866667
vt 0.526023 0.863934
vt 0.382402 0.894831
vt 0.527762 0.877528
vt 0.385647 0.920209
vt 0.530101 0.889107
vt 0.390015 0.941826
vt 0.982344 0.267280
vt 0.980004 0.280786
vt 0.837890 0.243740
vt 0.842258 0.218526
vt 0.978266 0.295812
vt 0.834644 0.271792
vt 0.977195 0.311780
vt 0.832645 0.301602
vt 0.976833 0.328076
vt 0.831970 0.332025
vt 0.977195 0.344074
vt 0.832645 0.361893
vt 0.978265 0.359160
vt 0.834644 0.390057
vt 0.980004 0.372754
vt 0.837890 0.415435
vt 0.982344 0.384333
vt 0.842258 0.437052
vt 0.530101 0.557493
vt 0.527762 0.569072
vt 0.385647 0.526390
vt 0.390015 0.504773
vt 0.526023 0.582666
vt 0.382401 0.551769
vt 0.524952 0.597752
vt 0.380403 0.579933
vt 0.524591 0.613750
vt 0.379728 0.609800
vt 0.524952 0.630046
vt 0.380403 0.640224
vt 0.526023 0.646014
vt 0.382401 0.670034
vt 0.527762 0.661040
vt 0.385647 0.698085
vt 0.530101 0.674545
vt 0.390015 0.723300
vt 0.982344 0.052719
vt 0.980004 0.064298
vt 0.837890 0.021617
vt 0.842258 0.000000
vt 0.978266 0.077892
vt 0.834644 0.046995
vt 0.977195 0.092978
vt 0.832645 0.075159
vn 0.0980 0.0000 -0.9952
vn 0.2903 0.0000 -0.9569
vn 0.4714 0.0000 -0.8819
vn 0.6344 0.0000 -0.7730
vn 0.7730 0.0000 -0.6344
vn 0.8819 0.0000 -0.4714
vn 0.9569 0.0000 -0.2903
vn 0.9952 0.0000 -0.0980
vn 0.9952 0.0000 0.0980
vn 0.9569 0.0000 0.2903
vn 0.8819 0.0000 0.4714
vn 0.7730 0.0000 0.6344
vn 0.6344 0.0000 0.7730
vn 0.4714 0.0000 0.8819
vn 0.2903 0.0000 0.9569
vn 0.0980 0.0000 0.9952
vn -0.0980 0.0000 0.9952
vn -0.2903 0.0000 0.9569
vn -0.4714 0.0000 0.8819
vn -0.6344 0.0000 0.7730
vn -0.7730 0.0000 0.6344
vn -0.8819 0.0000 0.4714
vn -0.9569 0.0000 0.2903
vn -0.9952 0.0000 0.0980
vn -0.9952 0.0000 -0.0980
vn -0.9569 0.0000 -0.2903
vn -0.8819 0.0000 -0.4714
vn -0.7730 0.0000 -0.6344
vn -0.6344 0.0000 -0.7730
vn -0.4714 0.0000 -0.8819
vn 0.0000 1.0000 -0.0000
vn -0.2903 0.0000 -0.9569
vn -0.0980 0.0000 -0.9952
vn 0.0000 -1.0000 -0.0000
vn 0.0449 0.8890 -0.4557
vn 0.1329 0.8890 -0.4382
vn 0.2158 0.8890 -0.4038
vn 0.2905 0.8890 -0.3539
vn 0.3539 0.8890 -0.2905
vn 0.4038 0.8890 -0.2158
vn 0.4382 0.8890 -0.1329
vn 0.4557 0.8890 -0.0449
vn 0.4557 0.8890 0.0449
vn 0.4382 0.8890 0.1329
vn 0.4038 0.8890 0.2158
vn 0.3539 0.8890 0.2905
vn 0.2905 0.8890 0.3539
vn 0.2158 0.8890 0.4038
vn 0.1329 0.8890 0.4382
vn 0.0449 0.8890 0.4557
vn -0.0449 0.8890 0.4557
vn -0.1329 0.8890 0.4382
vn -0.2158 0.8890 0.4038
vn -0.2905 0.8890 0.3539
vn -0.3539 0.8890 0.2905
vn -0.4038 0.8890 0.2158
vn -0.4382 0.8890 0.1329
vn -0.4557 0.8890 0.0449
vn -0.4557 0.8890 -0.0449
vn -0.4382 0.8890 -0.1329
vn -0.4038 0.8890 -0.2158
vn -0.3539 0.8890 -0.2905
vn -0.2905 0.8890 -0.3539
vn -0.2158 0.8890 -0.4038
vn -0.1329 0.8890 -0.4382
vn -0.0449 0.8890 -0.4557
vn -0.0237 0.9703 0.2406
vn -0.0702 0.9703 0.2313
vn -0.1140 0.9703 0.2132
vn -0.1534 0.9703 0.1869
vn -0.1869 0.9703 0.1534
vn -0.2132 0.9703 0.1140
vn -0.2313 0.9703 0.0702
vn -0.2406 0.9703 0.0237
vn -0.2406 0.9703 -0.0237
vn -0.2313 0.9703 -0.0702
vn -0.2132 0.9703 -0.1140
vn -0.1869 0.9703 -0.1534
vn -0.1534 0.9703 -0.1869
vn -0.1140 0.9703 -0.2132
vn -0.0702 0.9703 -0.2313
vn -0.0237 0.9703 -0.2406
vn 0.0237 0.9703 -0.2406
vn 0.0702 0.9703 -0.2313
vn 0.1140 0.9703 -0.2132
vn 0.1534 0.9703 -0.1869
vn 0.1869 0.9703 -0.1534
vn 0.2132 0.9703 -0.1140
vn 0.2313 0.9703 -0.0702
vn 0.2406 0.9703 -0.0237
vn 0.2406 0.9703 0.0237
vn 0.2313 0.9703 0.0702
vn 0.2132 0.9703 0.1140
vn 0.1869 0.9703 0.1534
vn 0.1534 0.9703 0.1869
vn 0.1140 0.9703 0.2132
vn 0.0702 0.9703 0.2313
vn 0.0237 0.9703 0.2406
g 柱体_柱体_Material.001
usemtl Material.001
s off
f 1/1/1 66/2/1 65/3/1 3/4/1
f 3/4/2 65/3/2 67/5/2 5/6/2
f 5/6/3 67/5/3 68/7/3 7/8/3
f 7/8/4 68/7/4 69/9/4 9/10/4
f 9/10/5 69/9/5 70/11/5 11/12/5
f 11/12/6 70/11/6 71/13/6 13/14/6
f 13/14/7 71/13/7 72/15/7 15/16/7
f 15/16/8 72/15/8 73/17/8 17/18/8
f 17/18/9 73/17/9 74/19/9 19/20/9
f 19/20/10 74/19/10 75/21/10 21/22/10
f 21/22/11 75/21/11 76/23/11 23/24/11
f 23/24/12 76/23/12 77/25/12 25/26/12
f 25/26/13 77/25/13 78/27/13 27/28/13
f 27/29/14 78/30/14 79/31/14 29/32/14
f 29/32/15 79/31/15 80/33/15 31/34/15
f 31/34/16 80/33/16 81/35/16 33/36/16
f 33/36/17 81/35/17 82/37/17 35/38/17
f 35/38/18 82/37/18 83/39/18 37/40/18
f 37/40/19 83/39/19 84/41/19 39/42/19
f 39/42/20 84/41/20 85/43/20 41/44/20
f 41/45/21 85/46/21 86/47/21 43/48/21
f 43/48/22 86/47/22 87/49/22 45/50/22
f 45/50/23 87/49/23 88/51/23 47/52/23
f 47/52/24 88/51/24 89/53/24 49/54/24
f 49/54/25 89/53/25 90/55/25 51/56/25
f 51/56/26 90/55/26 91/57/26 53/58/26
f 53/58/27 91/57/27 92/59/27 55/60/27
f 55/61/28 92/62/28 93/63/28 57/64/28
f 57/64/29 93/63/29 94/65/29 59/66/29
f 59/66/30 94/65/30 95/67/30 61/68/30
f 4/69/31 2/70/31 64/71/31 62/72/31 60/73/31 58/74/31 56/75/31 54/76/31 52/77/31 50/78/31 48/79/31 46/80/31 44/81/31 42/82/31 40/83/31 38/84/31 36/85/31 34/86/31 32/87/31 30/88/31 28/89/31 26/90/31 24/91/31 22/92/31 20/93/31 18/94/31 16/95/31 14/96/31 12/97/31 10/98/31 8/99/31 6/100/31
f 61/68/32 95/67/32 96/101/32 63/102/32
f 63/102/33 96/101/33 66/2/33 1/1/33
f 1/103/34 3/104/34 5/105/34 7/106/34 9/107/34 11/108/34 13/109/34 15/110/34 17/111/34 19/112/34 21/113/34 23/114/34 25/115/34 27/116/34 29/117/34 31/118/34 33/119/34 35/120/34 37/121/34 39/122/34 41/123/34 43/124/34 45/125/34 47/126/34 49/127/34 51/128/34 53/129/34 55/130/34 57/131/34 59/132/34 61/133/34 63/134/34
f 98/135/35 97/136/35 65/3/35 66/2/35
f 97/136/36 99/137/36 67/5/36 65/3/36
f 99/137/37 100/138/37 68/7/37 67/5/37
f 100/138/38 101/139/38 69/9/38 68/7/38
f 101/140/39 102/141/39 70/11/39 69/9/39
f 102/141/40 103/142/40 71/13/40 70/11/40
f 103/142/41 104/143/41 72/15/41 71/13/41
f 104/143/42 105/144/42 73/17/42 72/15/42
f 105/144/43 106/145/43 74/19/43 73/17/43
f 106/145/44 107/146/44 75/21/44 74/19/44
f 107/146/45 108/147/45 76/23/45 75/21/45
f 108/147/46 109/148/46 77/25/46 76/23/46
f 109/148/47 110/149/47 78/27/47 77/25/47
f 110/150/48 111/151/48 79/31/48 78/30/48
f 111/151/49 112/152/49 80/33/49 79/31/49
f 112/152/50 113/153/50 81/35/50 80/33/50
f 113/153/51 114/154/51 82/37/51 81/35/51
f 114/154/52 115/155/52 83/39/52 82/37/52
f 115/155/53 116/156/53 84/41/53 83/39/53
f 116/156/54 117/157/54 85/43/54 84/41/54
f 117/158/55 118/159/55 86/47/55 85/46/55
f 118/159/56 119/160/56 87/49/56 86/47/56
f 119/160/57 120/161/57 88/51/57 87/49/57
f 120/161/58 121/162/58 89/53/58 88/51/58
f 121/162/59 122/163/59 90/55/59 89/53/59
f 122/163/60 123/164/60 91/57/60 90/55/60
f 123/164/61 124/165/61 92/59/61 91/57/61
f 124/166/62 125/167/62 93/63/62 92/62/62
f 125/167/63 126/168/63 94/65/63 93/63/63
f 126/168/64 127/169/64 95/67/64 94/65/64
f 127/169/65 128/170/65 96/101/65 95/67/65
f 128/170/66 98/135/66 66/2/66 96/101/66
f 2/171/67 4/172/67 97/173/67 98/174/67
f 4/172/68 6/175/68 99/176/68 97/173/68
f 6/175/69 8/177/69 100/178/69 99/176/69
f 8/177/70 10/179/70 101/180/70 100/178/70
f 10/181/71 12/182/71 102/183/71 101/184/71
f 12/182/72 14/185/72 103/186/72 102/183/72
f 14/185/73 16/187/73 104/188/73 103/186/73
f 16/187/74 18/189/74 105/190/74 104/188/74
f 18/189/75 20/191/75 106/192/75 105/190/75
f 20/191/76 22/193/76 107/194/76 106/192/76
f 22/193/77 24/195/77 108/196/77 107/194/77
f 24/195/78 26/197/78 109/198/78 108/196/78
f 26/199/79 28/200/79 110/201/79 109/202/79
f 28/200/80 30/203/80 111/204/80 110/201/80
f 30/203/81 32/205/81 112/206/81 111/204/81
f 32/205/82 34/207/82 113/208/82 112/206/82
f 34/207/83 36/209/83 114/210/83 113/208/83
f 36/209/84 38/211/84 115/212/84 114/210/84
f 38/211/85 40/213/85 116/214/85 115/212/85
f 40/213/86 42/215/86 117/216/86 116/214/86
f 42/217/87 44/218/87 118/219/87 117/220/87
f 44/218/88 46/221/88 119/222/88 118/219/88
f 46/221/89 48/223/89 120/224/89 119/222/89
f 48/223/90 50/225/90 121/226/90 120/224/90
f 50/225/91 52/227/91 122/228/91 121/226/91
f 52/227/92 54/229/92 123/230/92 122/228/92
f 54/229/93 56/231/93 124/232/93 123/230/93
f 56/231/94 58/233/94 125/234/94 124/232/94
f 58/235/95 60/236/95 126/237/95 125/238/95
f 60/236/96 62/239/96 127/240/96 126/237/96
f 62/239/97 64/241/97 128/242/97 127/240/97
f 64/241/98 2/171/98 98/174/98 128/242/98
