# Blender v2.79 (sub 0) OBJ File: 'untitled.blend'
# www.blender.org
mtllib test1-lodv4.mtl
o Cube
v -0.287116 -0.802275 0.346681
v -0.287116 6.480106 0.346681
v -0.287116 -0.802275 -0.187310
v -0.287116 6.480106 -0.187310
v 0.277197 -0.802275 0.346681
v 0.277197 6.480106 0.346681
v 0.277197 -0.802275 -0.187310
v 0.277197 6.480106 -0.187310
vn -1.0000 0.0000 0.0000
vn 0.0000 0.0000 -1.0000
vn 1.0000 0.0000 0.0000
vn 0.0000 0.0000 1.0000
vn 0.0000 -1.0000 0.0000
vn 0.0000 1.0000 0.0000
usemtl None
s off
f 1//1 2//1 4//1 3//1
f 3//2 4//2 8//2 7//2
f 7//3 8//3 6//3 5//3
f 5//4 6//4 2//4 1//4
f 3//5 7//5 5//5 1//5
f 8//6 4//6 2//6 6//6
o Cone
v 0.945040 6.225747 -0.412215
v 0.764299 6.225747 0.850239
v -0.543840 6.225747 1.164386
v -1.119928 6.225747 -0.047645
v -0.097717 8.269061 0.074266
v -0.298096 6.225747 -1.070795
vn 0.4270 0.4098 -0.8060
vn 0.8954 0.4264 0.1282
vn 0.2115 0.4237 0.8808
vn -0.8309 0.3921 0.3949
vn -0.7169 0.3930 -0.5758
vn 0.0000 -1.0000 -0.0000
usemtl None
s off
f 14//7 13//7 9//7
f 9//8 13//8 10//8
f 10//9 13//9 11//9
f 11//10 13//10 12//10
f 12//11 13//11 14//11
f 14//12 9//12 10//12 11//12 12//12
