# Blender v2.79 (sub 0) OBJ File: 'untitled.blend'
# www.blender.org
mtllib test1-lodv3.mtl
o Cube
v -0.287116 -0.802275 0.346681
v -0.287116 6.480106 0.346681
v -0.287116 -0.802275 -0.187310
v -0.287116 6.480106 -0.187310
v 0.277197 -0.802275 0.346681
v 0.277197 6.480106 0.346681
v 0.277197 -0.802275 -0.187310
v 0.277197 6.480106 -0.187310
vn -1.0000 0.0000 0.0000
vn 0.0000 0.0000 -1.0000
vn 1.0000 0.0000 0.0000
vn 0.0000 0.0000 1.0000
vn 0.0000 -1.0000 0.0000
vn 0.0000 1.0000 0.0000
usemtl None
s off
f 1//1 2//1 4//1 3//1
f 3//2 4//2 8//2 7//2
f 7//3 8//3 6//3 5//3
f 5//4 6//4 2//4 1//4
f 3//5 7//5 5//5 1//5
f 8//6 4//6 2//6 6//6
o Cone
v -0.080636 6.225747 -1.220758
v 0.385598 6.225747 -1.110611
v 0.789210 6.225747 -0.841197
v 1.075867 6.225747 -0.294429
v 1.125875 6.225747 0.327963
v 0.764299 6.225747 0.965245
v 0.159354 6.225747 1.346147
v -0.080636 6.225747 1.371048
v -0.546871 6.225747 1.260900
v -0.950482 6.225747 0.991486
v -1.206225 6.225747 0.566300
v -0.097717 8.269061 0.074266
v -1.310783 6.225747 0.075144
v -1.206224 6.225747 -0.416013
v -0.950480 6.225747 -0.841198
v -0.546868 6.225747 -1.110612
vn 0.1955 0.5262 -0.8276
vn 0.4732 0.5230 -0.7089
vn 0.7620 0.5097 -0.3995
vn 0.8596 0.5062 -0.0691
vn 0.7517 0.5031 0.4265
vn 0.4581 0.5106 0.7276
vn 0.0872 0.5343 0.8408
vn -0.1958 0.5243 0.8287
vn -0.4750 0.5177 0.7116
vn -0.7384 0.5075 0.4441
vn -0.8458 0.5022 0.1801
vn -0.8459 0.5021 -0.1801
vn -0.7385 0.5072 -0.4442
vn -0.4752 0.5172 -0.7118
vn -0.1959 0.5238 -0.8290
vn 0.0000 -1.0000 -0.0000
usemtl None
s off
f 9//7 20//7 10//7
f 10//8 20//8 11//8
f 11//9 20//9 12//9
f 12//10 20//10 13//10
f 13//11 20//11 14//11
f 14//12 20//12 15//12
f 15//13 20//13 16//13
f 16//14 20//14 17//14
f 17//15 20//15 18//15
f 18//16 20//16 19//16
f 19//17 20//17 21//17
f 21//18 20//18 22//18
f 22//19 20//19 23//19
f 23//20 20//20 24//20
f 24//21 20//21 9//21
f 9//22 10//22 11//22 12//22 13//22 14//22 15//22 16//22 17//22 18//22 19//22 21//22 22//22 23//22 24//22
