# Blender v2.82 (sub 7) OBJ File: 'wood.blend'
# www.blender.org
mtllib wood.mtl
o 柱体
v -1.847796 0.209894 0.298293
v 1.741226 0.213208 -0.686471
v -1.838171 0.058018 0.332858
v 1.750851 0.061332 -0.651906
v -1.802971 -0.024004 0.460870
v 1.786050 -0.020690 -0.523894
v -1.762815 0.011876 0.607341
v 1.826206 0.015190 -0.377423
v -1.741226 0.144639 0.686471
v 1.847796 0.147953 -0.298293
v -1.750851 0.296515 0.651906
v 1.838171 0.299829 -0.332858
v -1.786051 0.378537 0.523894
v 1.802971 0.381851 -0.460870
v -1.826206 0.342657 0.377423
v 1.762815 0.345971 -0.607341
vt 0.666667 0.000000
vt 0.666667 0.360797
vt 0.569036 0.360797
vt 0.569036 0.000000
vt 0.430964 0.360797
vt 0.430964 0.000000
vt 0.333333 0.360797
vt 0.333333 0.000000
vt 0.235702 0.000000
vt 0.235702 0.360797
vt 0.097631 0.360797
vt 0.097631 0.000000
vt 0.000000 0.360797
vt 0.000000 0.000000
vt 0.666667 0.694131
vt 0.666667 0.333333
vt 0.804738 0.333333
vt 0.804738 0.694131
vt 0.333333 0.458429
vt 0.333333 0.596500
vt 0.235702 0.694131
vt 0.097631 0.694131
vt 0.000000 0.596500
vt 0.000000 0.458428
vt 0.097631 0.360797
vt 0.235702 0.360797
vt 0.902369 0.333333
vt 0.902369 0.694131
vt 0.666667 0.235702
vt 0.666667 0.097631
vt 0.764298 0.000000
vt 0.902369 0.000000
vt 1.000000 0.097631
vt 1.000000 0.235702
vt 0.902369 0.333333
vt 0.764298 0.333333
vn -0.2256 0.5256 -0.8203
vn -0.2573 -0.2299 -0.9386
vn -0.1383 -0.8507 -0.5071
vn 0.2256 -0.5256 0.8203
vn 0.2573 0.2299 0.9386
vn 0.1383 0.8507 0.5071
vn 0.9644 0.0009 -0.2646
vn -0.0617 0.9732 -0.2215
vn -0.9644 -0.0009 0.2646
vn 0.0617 -0.9732 0.2215
usemtl Material.001
s off
f 15/1/1 16/2/1 2/3/1 1/4/1
f 1/4/2 2/3/2 4/5/2 3/6/2
f 3/6/3 4/5/3 6/7/3 5/8/3
f 7/9/4 8/10/4 10/11/4 9/12/4
f 9/12/5 10/11/5 12/13/5 11/14/5
f 11/15/6 12/16/6 14/17/6 13/18/6
f 2/19/7 16/20/7 14/21/7 12/22/7 10/23/7 8/24/7 6/25/7 4/26/7
f 13/18/8 14/17/8 16/27/8 15/28/8
f 1/29/9 3/30/9 5/31/9 7/32/9 9/33/9 11/34/9 13/35/9 15/36/9
f 5/8/10 6/7/10 8/10/10 7/9/10
